<svg id="visual" viewBox="0 0 900 600" width="900" height="600" xmlns="http://www.w3.org/2000/svg" xmlns:xlink="http://www.w3.org/1999/xlink" version="1.1"><rect x="0" y="0" width="900" height="600" fill="#002233"></rect><path d="M0 150L25 152.8C50 155.7 100 161.3 150 149.8C200 138.3 250 109.7 300 100.5C350 91.3 400 101.7 450 107.5C500 113.3 550 114.7 600 117.3C650 120 700 124 750 129.3C800 134.7 850 141.3 875 144.7L900 148L900 0L875 0C850 0 800 0 750 0C700 0 650 0 600 0C550 0 500 0 450 0C400 0 350 0 300 0C250 0 200 0 150 0C100 0 50 0 25 0L0 0Z" fill="#0066FF" stroke-linecap="round" stroke-linejoin="miter"></path></svg>